<svg width="179" height="166" viewBox="0 0 179 166" fill="none" xmlns="http://www.w3.org/2000/svg">
<circle cx="83" cy="83" r="83" fill="#741904"/>
<path d="M71.9 89.9H39.3V120H30V50H78.3L83.5 62.8V73.1L71.9 89.9ZM74.2 64.6L72.1 59.4H39.3V80.5H67L74.2 70.1V64.6ZM134.4 89.9H101.8V120H92.5V50H140.8L146 62.8V73.1L134.4 89.9ZM136.7 64.6L134.6 59.4H101.8V80.5H129.5L136.7 70.1V64.6Z" fill="#F27215"/>
<path d="M71.9 89.9V94.9H74.5237L76.0145 92.741L71.9 89.9ZM39.3 89.9V84.9H34.3V89.9H39.3ZM39.3 120V125H44.3V120H39.3ZM30 120H25V125H30V120ZM30 50V45H25V50H30ZM78.3 50L82.9323 48.1181L81.6656 45H78.3V50ZM83.5 62.8H88.5V61.8231L88.1323 60.9181L83.5 62.8ZM83.5 73.1L87.6145 75.941L88.5 74.6585V73.1H83.5ZM74.2 64.6H79.2V63.6285L78.8362 62.7277L74.2 64.6ZM72.1 59.4L76.7362 57.5277L75.4731 54.4H72.1V59.4ZM39.3 59.4V54.4H34.3V59.4H39.3ZM39.3 80.5H34.3V85.5H39.3V80.5ZM67 80.5V85.5H69.6198L71.111 83.346L67 80.5ZM74.2 70.1L78.311 72.946L79.2 71.6619V70.1H74.2ZM71.9 84.9H39.3V94.9H71.9V84.9ZM34.3 89.9V120H44.3V89.9H34.3ZM39.3 115H30V125H39.3V115ZM35 120V50H25V120H35ZM30 55H78.3V45H30V55ZM73.6677 51.8819L78.8677 64.6819L88.1323 60.9181L82.9323 48.1181L73.6677 51.8819ZM78.5 62.8V73.1H88.5V62.8H78.5ZM79.3855 70.259L67.7855 87.059L76.0145 92.741L87.6145 75.941L79.3855 70.259ZM78.8362 62.7277L76.7362 57.5277L67.4638 61.2723L69.5638 66.4723L78.8362 62.7277ZM72.1 54.4H39.3V64.4H72.1V54.4ZM34.3 59.4V80.5H44.3V59.4H34.3ZM39.3 85.5H67V75.5H39.3V85.5ZM71.111 83.346L78.311 72.946L70.089 67.2539L62.889 77.6539L71.111 83.346ZM79.2 70.1V64.6H69.2V70.1H79.2ZM134.4 89.9V94.9H137.024L138.514 92.741L134.4 89.9ZM101.8 89.9V84.9H96.8V89.9H101.8ZM101.8 120V125H106.8V120H101.8ZM92.5 120H87.5V125H92.5V120ZM92.5 50V45H87.5V50H92.5ZM140.8 50L145.432 48.1181L144.166 45H140.8V50ZM146 62.8H151V61.8231L150.632 60.9181L146 62.8ZM146 73.1L150.114 75.941L151 74.6585V73.1H146ZM136.7 64.6H141.7V63.6285L141.336 62.7277L136.7 64.6ZM134.6 59.4L139.236 57.5277L137.973 54.4H134.6V59.4ZM101.8 59.4V54.4H96.8V59.4H101.8ZM101.8 80.5H96.8V85.5H101.8V80.5ZM129.5 80.5V85.5H132.12L133.611 83.346L129.5 80.5ZM136.7 70.1L140.811 72.946L141.7 71.6619V70.1H136.7ZM134.4 84.9H101.8V94.9H134.4V84.9ZM96.8 89.9V120H106.8V89.9H96.8ZM101.8 115H92.5V125H101.8V115ZM97.5 120V50H87.5V120H97.5ZM92.5 55H140.8V45H92.5V55ZM136.168 51.8819L141.368 64.6819L150.632 60.9181L145.432 48.1181L136.168 51.8819ZM141 62.8V73.1H151V62.8H141ZM141.886 70.259L130.286 87.059L138.514 92.741L150.114 75.941L141.886 70.259ZM141.336 62.7277L139.236 57.5277L129.964 61.2723L132.064 66.4723L141.336 62.7277ZM134.6 54.4H101.8V64.4H134.6V54.4ZM96.8 59.4V80.5H106.8V59.4H96.8ZM101.8 85.5H129.5V75.5H101.8V85.5ZM133.611 83.346L140.811 72.946L132.589 67.2539L125.389 77.6539L133.611 83.346ZM141.7 70.1V64.6H131.7V70.1H141.7Z"/>
</svg>
